<svg width="343" height="52" viewBox="0 0 343 52" fill="none" xmlns="http://www.w3.org/2000/svg">
<g clip-path="url(#clip0_2095_89312)">
<g filter="url(#filter0_dd_2095_89312)">
<path fill-rule="evenodd" clip-rule="evenodd" d="M11 41.0993C6.15832 37.6556 3 31.9994 3 25.6055C3 15.1121 11.5066 6.60547 22 6.60547C32.4934 6.60547 41 15.1121 41 25.6055C41 31.9994 37.8417 37.6556 33 41.0993V25.048L29.7514 19.6238H29.2288V17.0296L25.9802 11.6055H23V44.5796C22.6688 44.5968 22.3354 44.6055 22 44.6055C21.6646 44.6055 21.3312 44.5968 21 44.5796V11.6055H18.0198L14.7712 17.0296V19.6238H14.2486L11 25.048V41.0993ZM11 44.6623V47.6055H13.4859V45.8974C13.645 45.9642 13.8051 46.0293 13.9661 46.0924V47.6055H19.8559L19.9144 47.5079C20.6009 47.5725 21.2966 47.6055 22 47.6055C22.7034 47.6055 23.3991 47.5725 24.0856 47.5079L24.1441 47.6055H30.0339V46.0924C30.1949 46.0293 30.355 45.9642 30.5141 45.8974V47.6055H33V44.6623C39.5758 40.8584 44 33.7486 44 25.6055C44 13.4552 34.1503 3.60547 22 3.60547C9.84974 3.60547 0 13.4552 0 25.6055C0 33.7486 4.42419 40.8584 11 44.6623ZM30.5141 42.5957V26.746L29.2288 24.5763V43.182C29.6657 43.0021 30.0943 42.8064 30.5141 42.5957ZM14.7712 43.182C14.3343 43.0021 13.9057 42.8064 13.4859 42.5957V26.746L14.7712 24.5763V43.182ZM18.5141 16.6287L17.2571 18.7276V43.4548L18.5141 41.3795V16.6287ZM25.4859 16.6287L26.7429 18.7276V43.4548L25.4859 41.3795V16.6287Z" fill="white"/>
</g>
</g>
<g filter="url(#filter1_dd_2095_89312)">
<path d="M95.7895 28.9705H64.3116L57.4737 22.1032V14.2926H60.2737L62.6611 16.68V19.9811L66.4337 23.7832H93.4316L95.7895 26.1411V28.9705ZM93.1074 13.2905H59.8611L57.4737 10.9032V8.10316H90.72L93.1074 10.4905V13.2905ZM125.504 29H101.757L100.073 27.2947V24.4316H103.315L104.283 25.2947H122.704L120.852 23.4211H104.978L100.073 18.5368V14.0947H102.073L103.757 15.8V17.0211L106.41 19.6737H122.283L123.504 20.8526V14.0947H125.504L127.188 15.8V27.2947L125.504 29ZM157.691 29H132.26L130.555 27.2947V18.5158H132.555L133.755 19.7158H146.113L144.176 17.8H130.555V14.0947H145.691L150.534 18.9368V19.7158H152.849L157.691 24.5579V29ZM153.207 25.2947L151.334 23.4211H134.26L136.113 25.2947H153.207ZM188.447 17.8H167.436L165.752 16.0947V14.0947H186.741L188.447 15.8V17.8ZM186.741 29H162.762L161.057 27.2947V24.5579L164.068 21.5474L161.057 18.5368V14.0947H163.057L164.762 15.8V17.0211L167.457 19.7158H184.362L186.068 21.4211V23.4211H167.415L165.541 25.2947H188.447V27.2947L186.741 29ZM218.943 29H215.006L209.469 23.4211H195.512V29H193.512L191.806 27.2947V19.7158H212.543L214.459 17.8H191.806V15.8L193.512 14.0947H217.238L218.943 15.8V18.5368L214.438 23.0211L218.943 27.5684V29ZM226.014 29H224.014L222.309 27.2947V19.7158H243.046L244.961 17.8H222.309V15.8L224.014 14.0947H247.74L249.446 15.8V18.5368L244.561 23.4211H226.014V29ZM278.495 29H257.695L252.811 24.0947V14.0947H254.811L256.516 15.8V22.6L259.211 25.2947H276.495V14.0947H278.495L280.18 15.8V27.2947L278.495 29ZM275.527 23.4211H273.527L271.822 21.7158V14.7895H273.822L275.527 16.4947V23.4211ZM304.992 23.4211H300.571L293.435 16.2211V14.7895H297.371L304.992 22.4737V23.4211ZM311.035 29H299.371L288.129 17.8H285.245L283.54 16.0947V14.0947H289.771L301.077 25.2947H307.35V15.8L309.035 14.0947H311.035V29ZM287.245 29H285.245L283.54 27.2947V18.9368H285.54L287.245 20.6421V29ZM341.907 29H333.276L329.697 25.4L326.076 29H316.097L314.412 27.2947V14.0947H316.412L318.118 15.8V25.2947H324.37L335.612 14.0947H341.907V16.0947L340.223 17.8H337.318L332.307 22.8105L334.791 25.2947H340.223L341.907 27V29ZM324.833 23.4211H320.412V22.4737L328.033 14.7895H331.97V16.2211L324.833 23.4211Z" fill="white"/>
</g>
<path d="M67.18 46.0669H69.928L68.32 41.9269L65.488 49.2109H64.144L67.648 40.4509H69.004L72.58 49.2109H71.152L70.384 47.2549H66.736L67.18 46.0669ZM93.6698 40.4509H100.006V41.7229H97.5098V49.2109H96.2018V41.7229H93.6698V40.4509ZM122.231 40.4509H128.567V41.7229H126.071V49.2109H124.763V41.7229H122.231V40.4509ZM152.699 46.0669H155.447L153.839 41.9269L151.007 49.2109H149.663L153.167 40.4509H154.523L158.099 49.2109H156.671L155.903 47.2549H152.255L152.699 46.0669ZM182.057 40.4509H185.801V41.7229H182.333C181.677 41.7229 181.349 42.0389 181.349 42.6709V46.9909C181.349 47.6229 181.677 47.9389 182.333 47.9389H185.801V49.2109H182.057C180.713 49.2109 180.041 48.5469 180.041 47.2189V42.4429C180.041 41.1149 180.713 40.4509 182.057 40.4509ZM208.733 40.4509H210.041V44.4829H210.089L213.521 40.4509H214.997L211.481 44.4109H213.653C214.773 44.4109 215.333 44.9629 215.333 46.0669V49.2109H214.037V46.2829C214.037 45.7389 213.753 45.4669 213.185 45.4669H210.041V49.2109H208.733V40.4509Z" fill="#FC2B87"/>
<defs>
<filter id="filter0_dd_2095_89312" x="-1" y="2.60547" width="46" height="46" filterUnits="userSpaceOnUse" color-interpolation-filters="sRGB">
<feFlood flood-opacity="0" result="BackgroundImageFix"/>
<feColorMatrix in="SourceAlpha" type="matrix" values="0 0 0 0 0 0 0 0 0 0 0 0 0 0 0 0 0 0 127 0" result="hardAlpha"/>
<feOffset dx="-1" dy="-1"/>
<feComposite in2="hardAlpha" operator="out"/>
<feColorMatrix type="matrix" values="0 0 0 0 0.00392157 0 0 0 0 1 0 0 0 0 1 0 0 0 1 0"/>
<feBlend mode="normal" in2="BackgroundImageFix" result="effect1_dropShadow_2095_89312"/>
<feColorMatrix in="SourceAlpha" type="matrix" values="0 0 0 0 0 0 0 0 0 0 0 0 0 0 0 0 0 0 127 0" result="hardAlpha"/>
<feOffset dx="1" dy="1"/>
<feComposite in2="hardAlpha" operator="out"/>
<feColorMatrix type="matrix" values="0 0 0 0 0.92549 0 0 0 0 0.101961 0 0 0 0 0.466667 0 0 0 1 0"/>
<feBlend mode="normal" in2="effect1_dropShadow_2095_89312" result="effect2_dropShadow_2095_89312"/>
<feBlend mode="normal" in="SourceGraphic" in2="effect2_dropShadow_2095_89312" result="shape"/>
</filter>
<filter id="filter1_dd_2095_89312" x="56.4736" y="7.10352" width="286.434" height="22.8965" filterUnits="userSpaceOnUse" color-interpolation-filters="sRGB">
<feFlood flood-opacity="0" result="BackgroundImageFix"/>
<feColorMatrix in="SourceAlpha" type="matrix" values="0 0 0 0 0 0 0 0 0 0 0 0 0 0 0 0 0 0 127 0" result="hardAlpha"/>
<feOffset dx="-1" dy="-1"/>
<feComposite in2="hardAlpha" operator="out"/>
<feColorMatrix type="matrix" values="0 0 0 0 0.00392157 0 0 0 0 1 0 0 0 0 1 0 0 0 1 0"/>
<feBlend mode="normal" in2="BackgroundImageFix" result="effect1_dropShadow_2095_89312"/>
<feColorMatrix in="SourceAlpha" type="matrix" values="0 0 0 0 0 0 0 0 0 0 0 0 0 0 0 0 0 0 127 0" result="hardAlpha"/>
<feOffset dx="1" dy="1"/>
<feComposite in2="hardAlpha" operator="out"/>
<feColorMatrix type="matrix" values="0 0 0 0 0.92549 0 0 0 0 0.101961 0 0 0 0 0.466667 0 0 0 1 0"/>
<feBlend mode="normal" in2="effect1_dropShadow_2095_89312" result="effect2_dropShadow_2095_89312"/>
<feBlend mode="normal" in="SourceGraphic" in2="effect2_dropShadow_2095_89312" result="shape"/>
</filter>
<clipPath id="clip0_2095_89312">
<rect y="3.60547" width="44" height="44" rx="22" fill="white"/>
</clipPath>
</defs>
</svg>
