<svg width="1829" height="112" viewBox="0 0 1829 112" fill="none" xmlns="http://www.w3.org/2000/svg">
<g filter="url(#filter0_dd_130_4012)">
<path fill-rule="evenodd" clip-rule="evenodd" d="M1825.5 0L3 0L3 90.465L103.961 90.465L112.665 78.2947L112.683 78.3261L112.705 78.2947L127.862 101.071L140.127 101.071L147.391 90.6222L411.162 90.6222V90.6181L497.479 90.5662L499.436 87.7637L496.284 83.2355H502.602L499.436 87.7637L501.429 90.6222H505.076L513.668 78.2947L513.68 78.3097L513.686 78.2947L536.516 111.047L548.629 93.6883L705.403 93.6364L708.147 97.5689L716.357 85.7852L721.834 93.6364L792.325 93.6883L799.195 83.8326H831.119L843.135 101.071H847.89L877.55 100.884L883.402 109.28L892.18 96.6835L896.635 90.2697L974.199 90.2697L977.336 85.7797L972.119 78.2947H982.564L977.336 85.7797L980.467 90.2697L1118.68 90.2697L1127.38 78.2947L1127.4 78.3261L1127.42 78.2947L1142.58 101.071H1154.84L1162.11 90.6222L1425.88 90.6222V90.5894L1464.73 90.5662L1466.69 87.7637L1463.54 83.2355H1469.86L1466.69 87.7637L1468.68 90.6222H1472.33L1480.92 78.2947L1480.93 78.3097L1480.94 78.2947L1503.77 111.047L1515.88 93.6883L1625.2 93.6364L1627.94 97.5689L1636.15 85.7852L1641.63 93.6364L1712.12 93.6883L1718.99 83.8326L1750.91 83.8326L1762.93 101.071H1767.68L1797.34 100.884L1803.2 109.28L1811.97 96.6835L1816.43 90.4405H1825.5V0ZM52.385 85.3698H47.4529V78.2947H52.385V85.3698ZM68.8378 85.3698H67.1947V78.2947H68.8378V85.3698ZM80.3442 85.3698H78.7011V78.2947H80.3442V85.3698ZM82.8388 85.3698H81.1928V78.2947H82.8388V85.3698ZM847.789 94.2636H846.143V91.9066H847.789V94.2636ZM847.789 89.5455H846.143V87.1885H847.789V89.5455ZM860.541 94.2636H858.894V87.1885H860.541V94.2636ZM866.845 94.2636H865.198V91.9066H866.845V94.2636ZM1067.1 85.3698H1062.17V78.2947H1067.1V85.3698ZM1083.55 85.3698H1081.91V78.2947H1083.55V85.3698ZM1095.06 85.3698H1093.42V78.2947H1095.06V85.3698ZM1097.55 85.3698H1095.91V78.2947H1097.55V85.3698ZM1767.58 94.2636H1765.94V91.9066H1767.58V94.2636ZM1767.58 89.5455H1765.94V87.1885H1767.58V89.5455ZM1780.33 94.2636H1778.69V87.1885H1780.33V94.2636ZM1786.64 94.2636H1784.99V91.9066H1786.64V94.2636ZM712.043 103.142L708.147 97.5689L704.262 103.142H712.043ZM974.173 90.3065H980.492L980.467 90.2697H974.199L974.173 90.3065ZM1631.84 103.142L1627.94 97.5689L1624.05 103.142H1631.84Z" fill="black"/>
</g>
<defs>
<filter id="filter0_dd_130_4012" x="0" y="0" width="1828.5" height="111.047" filterUnits="userSpaceOnUse" color-interpolation-filters="sRGB">
<feFlood flood-opacity="0" result="BackgroundImageFix"/>
<feColorMatrix in="SourceAlpha" type="matrix" values="0 0 0 0 0 0 0 0 0 0 0 0 0 0 0 0 0 0 127 0" result="hardAlpha"/>
<feOffset dx="3"/>
<feComposite in2="hardAlpha" operator="out"/>
<feColorMatrix type="matrix" values="0 0 0 0 0.988235 0 0 0 0 0.168627 0 0 0 0 0.529412 0 0 0 1 0"/>
<feBlend mode="normal" in2="BackgroundImageFix" result="effect1_dropShadow_130_4012"/>
<feColorMatrix in="SourceAlpha" type="matrix" values="0 0 0 0 0 0 0 0 0 0 0 0 0 0 0 0 0 0 127 0" result="hardAlpha"/>
<feOffset dx="-3"/>
<feComposite in2="hardAlpha" operator="out"/>
<feColorMatrix type="matrix" values="0 0 0 0 0.00392157 0 0 0 0 1 0 0 0 0 1 0 0 0 1 0"/>
<feBlend mode="normal" in2="effect1_dropShadow_130_4012" result="effect2_dropShadow_130_4012"/>
<feBlend mode="normal" in="SourceGraphic" in2="effect2_dropShadow_130_4012" result="shape"/>
</filter>
</defs>
</svg>
