<svg width="26" height="26" viewBox="0 0 26 26" fill="none" xmlns="http://www.w3.org/2000/svg">
<g clip-path="url(#clip0_1897_112339)" filter="url(#filter0_dd_1897_112339)">
<path d="M9.58663 14.8653C8.6725 14.8653 7.92714 14.0346 7.92714 13.0177C7.92714 12.0016 8.65405 11.1718 9.58751 11.1718C10.5104 11.1718 11.2663 12.0016 11.2479 13.0177C11.2479 14.0346 10.5104 14.8653 9.58663 14.8653ZM15.7166 14.8653C14.8024 14.8653 14.0553 14.0346 14.0553 13.0177C14.0553 12.0016 14.784 11.1718 15.7166 11.1718C16.6395 11.1718 17.3954 12.0016 17.3778 13.0177C17.3778 14.0346 16.6491 14.8653 15.7166 14.8653ZM10.9974 6.49486L10.7267 6L10.1694 6.09229C8.90646 6.30287 7.67734 6.68124 6.51464 7.21737L6.31423 7.31054L6.18942 7.49425C3.89268 10.8818 3.26246 14.2166 3.57449 17.4934L3.60877 17.8502L3.89883 18.0612C5.24997 19.0526 6.75905 19.8083 8.36223 20.2964L9.05661 20.5091L10.0349 18.121C11.7137 18.5358 13.5771 18.5367 15.2551 18.121L16.2281 20.51L16.9225 20.2964C18.5269 19.8096 20.0368 19.0535 21.3877 18.0603L21.6751 17.8511L21.7102 17.4978C22.0935 13.7006 21.0976 10.3922 19.1102 7.49073L18.9854 7.30878L18.785 7.21737C17.6226 6.68369 16.395 6.30541 15.1338 6.09229L14.5906 6.00176L14.3146 6.47728C14.2329 6.61948 14.1558 6.76429 14.0834 6.91149C13.1299 6.813 12.1688 6.813 11.2154 6.91149C11.1453 6.77125 11.0727 6.63235 10.9974 6.49486ZM8.00009 17.2947C8.17325 17.3949 8.35608 17.4934 8.53626 17.583L8.14161 18.5464C7.07419 18.1573 6.06145 17.632 5.12851 16.9836C4.93074 14.2245 5.49152 11.4417 7.38218 8.57186C8.18007 8.22046 9.01179 7.95156 9.86438 7.76936C9.91712 7.87923 9.96634 7.98647 10.0068 8.08227L10.2467 8.64745L10.855 8.55868C12.0469 8.38404 13.258 8.38404 14.45 8.55868L15.0564 8.64657L15.2955 8.08227C15.3368 7.98383 15.3852 7.8766 15.4362 7.76936C16.2949 7.95395 17.1264 8.22555 17.9219 8.57362C19.5699 11.0523 20.4014 13.8175 20.1597 16.9827C19.2268 17.6322 18.2134 18.1576 17.1449 18.5455L16.7537 17.5839C16.9348 17.4934 17.1176 17.3949 17.2925 17.2947C17.7232 17.0469 18.1865 16.7375 18.4818 16.4421L17.3567 15.3171C17.2134 15.4612 16.897 15.6862 16.498 15.9165C16.1077 16.1415 15.7201 16.3235 15.4722 16.4052C13.7116 16.988 11.5801 16.988 9.81868 16.4052C9.57169 16.3235 9.18406 16.1415 8.7938 15.9165C8.39475 15.6871 8.07832 15.4612 7.93417 15.3171L6.80909 16.4421C7.1053 16.7375 7.5694 17.0469 8.00009 17.2947Z" fill="white"/>
<rect x="1" y="1" width="4" height="1" fill="white"/>
<rect x="1" y="24" width="4" height="1" fill="white"/>
<rect x="21" y="1" width="4" height="1" fill="white"/>
<rect x="21" y="24" width="4" height="1" fill="white"/>
<rect x="25" y="21" width="4" height="1" transform="rotate(90 25 21)" fill="white"/>
<rect x="2" y="21" width="4" height="1" transform="rotate(90 2 21)" fill="white"/>
<rect x="2" y="1" width="4" height="1" transform="rotate(90 2 1)" fill="white"/>
<rect x="25" y="1" width="4" height="1" transform="rotate(90 25 1)" fill="white"/>
</g>
<defs>
<filter id="filter0_dd_1897_112339" x="0" y="0" width="26" height="26" filterUnits="userSpaceOnUse" color-interpolation-filters="sRGB">
<feFlood flood-opacity="0" result="BackgroundImageFix"/>
<feColorMatrix in="SourceAlpha" type="matrix" values="0 0 0 0 0 0 0 0 0 0 0 0 0 0 0 0 0 0 127 0" result="hardAlpha"/>
<feOffset dx="-1" dy="-1"/>
<feComposite in2="hardAlpha" operator="out"/>
<feColorMatrix type="matrix" values="0 0 0 0 0.00392157 0 0 0 0 0.820706 0 0 0 0 1 0 0 0 1 0"/>
<feBlend mode="normal" in2="BackgroundImageFix" result="effect1_dropShadow_1897_112339"/>
<feColorMatrix in="SourceAlpha" type="matrix" values="0 0 0 0 0 0 0 0 0 0 0 0 0 0 0 0 0 0 127 0" result="hardAlpha"/>
<feOffset dx="1" dy="1"/>
<feComposite in2="hardAlpha" operator="out"/>
<feColorMatrix type="matrix" values="0 0 0 0 0.988235 0 0 0 0 0.168627 0 0 0 0 0.529412 0 0 0 1 0"/>
<feBlend mode="normal" in2="effect1_dropShadow_1897_112339" result="effect2_dropShadow_1897_112339"/>
<feBlend mode="normal" in="SourceGraphic" in2="effect2_dropShadow_1897_112339" result="shape"/>
</filter>
<clipPath id="clip0_1897_112339">
<rect width="24" height="24" fill="white" transform="translate(1 1)"/>
</clipPath>
</defs>
</svg>
