<svg width="27" height="26" viewBox="0 0 27 26" fill="none" xmlns="http://www.w3.org/2000/svg">
<g clip-path="url(#clip0_1869_95557)" filter="url(#filter0_dd_1869_95557)">
<path d="M17.9322 6.82C17.2486 6.03962 16.8719 5.03743 16.8722 4H13.7822V16.4C13.7584 17.071 13.4751 17.7066 12.992 18.1729C12.5088 18.6393 11.8636 18.8999 11.1922 18.9C9.77219 18.9 8.59219 17.74 8.59219 16.3C8.59219 14.58 10.2522 13.29 11.9622 13.82V10.66C8.51219 10.2 5.49219 12.88 5.49219 16.3C5.49219 19.63 8.25219 22 11.1822 22C14.3222 22 16.8722 19.45 16.8722 16.3V10.01C18.1252 10.9099 19.6296 11.3926 21.1722 11.39V8.3C21.1722 8.3 19.2922 8.39 17.9322 6.82Z" fill="white"/>
<rect x="1.3335" y="1" width="4" height="1" fill="white"/>
<rect x="1.3335" y="24" width="4" height="1" fill="white"/>
<rect x="21.3335" y="1" width="4" height="1" fill="white"/>
<rect x="21.3335" y="24" width="4" height="1" fill="white"/>
<rect x="25.3335" y="21" width="4" height="1" transform="rotate(90 25.3335 21)" fill="white"/>
<rect x="2.3335" y="21" width="4" height="1" transform="rotate(90 2.3335 21)" fill="white"/>
<rect x="2.3335" y="1" width="4" height="1" transform="rotate(90 2.3335 1)" fill="white"/>
<rect x="25.3335" y="1" width="4" height="1" transform="rotate(90 25.3335 1)" fill="white"/>
</g>
<defs>
<filter id="filter0_dd_1869_95557" x="0.333496" y="0" width="26" height="26" filterUnits="userSpaceOnUse" color-interpolation-filters="sRGB">
<feFlood flood-opacity="0" result="BackgroundImageFix"/>
<feColorMatrix in="SourceAlpha" type="matrix" values="0 0 0 0 0 0 0 0 0 0 0 0 0 0 0 0 0 0 127 0" result="hardAlpha"/>
<feOffset dx="-1" dy="-1"/>
<feComposite in2="hardAlpha" operator="out"/>
<feColorMatrix type="matrix" values="0 0 0 0 0.00392157 0 0 0 0 0.820706 0 0 0 0 1 0 0 0 1 0"/>
<feBlend mode="normal" in2="BackgroundImageFix" result="effect1_dropShadow_1869_95557"/>
<feColorMatrix in="SourceAlpha" type="matrix" values="0 0 0 0 0 0 0 0 0 0 0 0 0 0 0 0 0 0 127 0" result="hardAlpha"/>
<feOffset dx="1" dy="1"/>
<feComposite in2="hardAlpha" operator="out"/>
<feColorMatrix type="matrix" values="0 0 0 0 0.988235 0 0 0 0 0.168627 0 0 0 0 0.529412 0 0 0 1 0"/>
<feBlend mode="normal" in2="effect1_dropShadow_1869_95557" result="effect2_dropShadow_1869_95557"/>
<feBlend mode="normal" in="SourceGraphic" in2="effect2_dropShadow_1869_95557" result="shape"/>
</filter>
<clipPath id="clip0_1869_95557">
<rect width="24" height="24" fill="white" transform="translate(1.3335 1)"/>
</clipPath>
</defs>
</svg>
