<svg width="307" height="52" viewBox="0 0 307 52" fill="none" xmlns="http://www.w3.org/2000/svg">
<path d="M43.483 31.8728H9.79619L2.47846 24.5235V16.1649H5.47495L8.02985 18.7198V22.2525L12.0672 26.3214H40.9596L43.483 28.8447V31.8728ZM40.6127 15.0924H5.03336L2.47846 12.5375V9.54106H38.0578L40.6127 12.096V15.0924ZM75.283 31.9043H49.8692L48.0668 30.0794V27.0153H51.5364L52.5728 27.939H72.2865L70.3038 25.9339H53.3163L48.0668 20.7069V15.9531H50.2071L52.0095 17.778V19.0848L54.8483 21.9235H71.8359L73.1426 23.1852V15.9531H75.283L77.0854 17.778V30.0794L75.283 31.9043ZM109.729 31.9043H82.5126L80.6877 30.0794V20.6844H82.828L84.1122 21.9686H97.3373L95.2646 19.9184H80.6877V15.9531H96.8867L102.069 21.135V21.9686H104.547L109.729 27.1505V31.9043ZM104.93 27.939L102.925 25.9339H84.653L86.6356 27.939H104.93ZM142.642 19.9184H120.157L118.355 18.0934V15.9531H140.817L142.642 17.778V19.9184ZM140.817 31.9043H115.156L113.331 30.0794V27.1505L116.552 23.9287L113.331 20.7069V15.9531H115.471L117.296 17.778V19.0848L120.18 21.9686H138.271L140.096 23.7935V25.9339H120.135L118.129 27.939H142.642V30.0794L140.817 31.9043ZM175.279 31.9043H171.066L165.14 25.9339H150.203V31.9043H148.062L146.238 30.0794V21.9686H168.43L170.48 19.9184H146.238V17.778L148.062 15.9531H173.454L175.279 17.778V20.7069L170.457 25.5058L175.279 30.3723V31.9043ZM182.846 31.9043H180.705L178.88 30.0794V21.9686H201.072L203.123 19.9184H178.88V17.778L180.705 15.9531H206.097L207.922 17.778V20.7069L202.695 25.9339H182.846V31.9043ZM239.01 31.9043H216.75L211.523 26.6548V15.9531H213.664L215.489 17.778V25.0552L218.372 27.939H236.87V15.9531H239.01L240.812 17.778V30.0794L239.01 31.9043ZM235.833 25.9339H233.693L231.868 24.1089V16.6966H234.008L235.833 18.5215V25.9339ZM267.366 25.9339H262.635L254.997 18.2286V16.6966H259.21L267.366 24.92V25.9339ZM273.832 31.9043H261.351L249.32 19.9184H246.233L244.408 18.0934V15.9531H251.077L263.176 27.939H269.89V17.778L271.692 15.9531H273.832V31.9043ZM248.374 31.9043H246.233L244.408 30.0794V21.135H246.549L248.374 22.9599V31.9043ZM306.871 31.9043H297.634L293.804 28.0517L289.929 31.9043H279.25L277.447 30.0794V15.9531H279.588L281.413 17.778V27.939H288.104L300.135 15.9531H306.871V18.0934L305.069 19.9184H301.96L296.598 25.2805L299.256 27.939H305.069L306.871 29.764V31.9043ZM288.6 25.9339H283.868V24.92L292.024 16.6966H296.237V18.2286L288.6 25.9339Z" fill="#01FFFF"/>
<path d="M41.6832 30.07H7.99639L0.678659 22.7207V14.3621H3.67514L6.23004 16.917V20.4497L10.2674 24.5186H39.1598L41.6832 27.042V30.07ZM38.8129 13.2897H3.23356L0.678659 10.7348V7.73833H36.258L38.8129 10.2932V13.2897ZM73.4832 30.1016H48.0694L46.267 28.2766V25.2126H49.7366L50.773 26.1363H70.4867L68.504 24.1311H51.5165L46.267 18.9042V14.1504H48.4073L50.2097 15.9753V17.282L53.0485 20.1208H70.0361L71.3428 21.3825V14.1504H73.4832L75.2856 15.9753V28.2766L73.4832 30.1016ZM107.929 30.1016H80.7128L78.8879 28.2766V18.8816H81.0282L82.3124 20.1659H95.5375L93.4648 18.1156H78.8879V14.1504H95.0869L100.269 19.3322V20.1659H102.747L107.929 25.3477V30.1016ZM103.13 26.1363L101.125 24.1311H82.8532L84.8358 26.1363H103.13ZM140.842 18.1156H118.357L116.555 16.2907V14.1504H139.017L140.842 15.9753V18.1156ZM139.017 30.1016H113.356L111.531 28.2766V25.3477L114.753 22.126L111.531 18.9042V14.1504H113.671L115.496 15.9753V17.282L118.38 20.1659H136.471L138.296 21.9908V24.1311H118.335L116.33 26.1363H140.842V28.2766L139.017 30.1016ZM173.479 30.1016H169.266L163.34 24.1311H148.403V30.1016H146.263L144.438 28.2766V20.1659H166.63L168.68 18.1156H144.438V15.9753L146.263 14.1504H171.654L173.479 15.9753V18.9042L168.657 23.7031L173.479 28.5695V30.1016ZM181.046 30.1016H178.906L177.081 28.2766V20.1659H199.273L201.323 18.1156H177.081V15.9753L178.906 14.1504H204.297L206.122 15.9753V18.9042L200.895 24.1311H181.046V30.1016ZM237.21 30.1016H214.951L209.724 24.8521V14.1504H211.864L213.689 15.9753V23.2525L216.573 26.1363H235.07V14.1504H237.21L239.013 15.9753V28.2766L237.21 30.1016ZM234.033 24.1311H231.893L230.068 22.3062V14.8938H232.208L234.033 16.7188V24.1311ZM265.567 24.1311H260.835L253.198 16.4259V14.8938H257.411L265.567 23.1173V24.1311ZM272.033 30.1016H259.551L247.52 18.1156H244.433L242.609 16.2907V14.1504H249.277L261.376 26.1363H268.09V15.9753L269.892 14.1504H272.033V30.1016ZM246.574 30.1016H244.433L242.609 28.2766V19.3322H244.749L246.574 21.1572V30.1016ZM305.072 30.1016H295.834L292.004 26.2489L288.129 30.1016H277.45L275.647 28.2766V14.1504H277.788L279.613 15.9753V26.1363H286.304L298.335 14.1504H305.072V16.2907L303.269 18.1156H300.16L294.798 23.4778L297.456 26.1363H303.269L305.072 27.9612V30.1016ZM286.8 24.1311H282.069V23.1173L290.224 14.8938H294.437V16.4259L286.8 24.1311Z" fill="#FF0000"/>
<path d="M42.5816 30.9685H8.89483L1.5771 23.6192V15.2606H4.57358L7.12848 17.8155V21.3482L11.1658 25.4171H40.0583L42.5816 27.9404V30.9685ZM39.7113 14.1881H4.13199L1.5771 11.6332V8.63676H37.1564L39.7113 11.1917V14.1881ZM74.3816 31H48.9678L47.1654 29.1751V26.111H50.635L51.6714 27.0347H71.3851L69.4025 25.0296H52.4149L47.1654 19.8026V15.0488H49.3058L51.1082 16.8737V18.1805L53.9469 21.0192H70.9345L72.2413 22.2809V15.0488H74.3816L76.184 16.8737V29.1751L74.3816 31ZM108.827 31H81.6113L79.7863 29.1751V19.7801H81.9267L83.2109 21.0643H96.436L94.3632 19.0141H79.7863V15.0488H95.9854L101.167 20.2307V21.0643H103.646L108.827 26.2462V31ZM104.029 27.0347L102.023 25.0296H83.7516L85.7342 27.0347H104.029ZM141.741 19.0141H119.256L117.453 17.1891V15.0488H139.916L141.741 16.8737V19.0141ZM139.916 31H114.254L112.429 29.1751V26.2462L115.651 23.0244L112.429 19.8026V15.0488H114.57L116.395 16.8737V18.1805L119.278 21.0643H137.37L139.195 22.8892V25.0296H119.233L117.228 27.0347H141.741V29.1751L139.916 31ZM174.377 31H170.164L164.239 25.0296H149.301V31H147.161L145.336 29.1751V21.0643H167.528L169.578 19.0141H145.336V16.8737L147.161 15.0488H172.552L174.377 16.8737V19.8026L169.556 24.6015L174.377 29.468V31ZM181.944 31H179.804L177.979 29.1751V21.0643H200.171L202.221 19.0141H177.979V16.8737L179.804 15.0488H205.195L207.02 16.8737V19.8026L201.793 25.0296H181.944V31ZM238.109 31H215.849L210.622 25.7505V15.0488H212.762L214.587 16.8737V24.1509L217.471 27.0347H235.968V15.0488H238.109L239.911 16.8737V29.1751L238.109 31ZM234.932 25.0296H232.791L230.967 23.2046V15.7923H233.107L234.932 17.6172V25.0296ZM266.465 25.0296H261.734L254.096 17.3243V15.7923H258.309L266.465 24.0157V25.0296ZM272.931 31H260.449L248.418 19.0141H245.332L243.507 17.1891V15.0488H250.176L262.274 27.0347H268.988V16.8737L270.791 15.0488H272.931V31ZM247.472 31H245.332L243.507 29.1751V20.2307H245.647L247.472 22.0556V31ZM305.97 31H296.733L292.903 27.1474L289.027 31H278.348L276.546 29.1751V15.0488H278.686L280.511 16.8737V27.0347H287.203L299.234 15.0488H305.97V17.1891L304.168 19.0141H301.058L295.696 24.3762L298.355 27.0347H304.168L305.97 28.8597V31ZM287.698 25.0296H282.967V24.0157L291.123 15.7923H295.336V17.3243L287.698 25.0296Z" fill="white"/>
<path d="M84.7376 43.7475C84.7376 43.369 84.8698 43.0476 85.1341 42.7833C85.3985 42.5189 85.7199 42.3867 86.0984 42.3867H88.847C89.2255 42.3867 89.547 42.5189 89.8113 42.7833C90.0817 43.0476 90.2169 43.369 90.2169 43.7475V51.8493H88.9642V47.7398H85.9812V51.8493H84.7376V43.7475ZM88.9642 46.4962V44.099C88.9642 43.9668 88.9191 43.8557 88.829 43.7656C88.7389 43.6754 88.6278 43.6304 88.4956 43.6304H86.4499C86.3237 43.6304 86.2125 43.6754 86.1164 43.7656C86.0263 43.8557 85.9812 43.9668 85.9812 44.099V46.4962H88.9642ZM116.895 42.3867V43.6304H114.497V51.8493H113.254V43.6304H110.856V42.3867H116.895ZM143.568 42.3867V43.6304H141.171V51.8493H139.927V43.6304H137.53V42.3867H143.568ZM164.203 43.7475C164.203 43.369 164.335 43.0476 164.6 42.7833C164.864 42.5189 165.185 42.3867 165.564 42.3867H168.313C168.691 42.3867 169.013 42.5189 169.277 42.7833C169.547 43.0476 169.682 43.369 169.682 43.7475V51.8493H168.43V47.7398H165.447V51.8493H164.203V43.7475ZM168.43 46.4962V44.099C168.43 43.9668 168.385 43.8557 168.295 43.7656C168.205 43.6754 168.093 43.6304 167.961 43.6304H165.915C165.789 43.6304 165.678 43.6754 165.582 43.7656C165.492 43.8557 165.447 43.9668 165.447 44.099V46.4962H168.43ZM195.261 43.6304H192.115C191.965 43.6304 191.836 43.6844 191.728 43.7926C191.626 43.8947 191.575 44.0209 191.575 44.1711V50.0649C191.575 50.2151 191.626 50.3413 191.728 50.4434C191.836 50.5516 191.965 50.6057 192.115 50.6057H195.261V51.8493H191.746C191.355 51.8493 191.019 51.7111 190.737 51.4348C190.46 51.1584 190.322 50.8249 190.322 50.4344V43.8016C190.322 43.4111 190.46 43.0776 190.737 42.8013C191.019 42.5249 191.355 42.3867 191.746 42.3867H195.261V43.6304ZM218.662 47.1451L220.672 50.6057L221.393 51.8493H219.951L219.23 50.6057L217.941 48.3887L217.148 49.7765V50.6057V51.8493H215.895V50.6057V43.6304V42.3867H217.148V43.6304V44.5226V47.0099V47.2802L217.22 47.1451L217.941 45.8924L219.248 43.6304L219.969 42.3867H221.411L220.69 43.6304L218.662 47.1451Z" fill="#FC2B87"/>
</svg>
