<svg width="68" height="58" viewBox="0 0 68 58" fill="none" xmlns="http://www.w3.org/2000/svg">
<g filter="url(#filter0_dd_5107_72292)">
<path fill-rule="evenodd" clip-rule="evenodd" d="M35.9795 2.14286C35.0997 0.619048 32.9003 0.619048 32.0205 2.14286L30.041 5.57143L26.1806 12.2579C26.3138 12.3045 26.4445 12.3641 26.5712 12.4372C27.6644 13.0684 28.039 14.4663 27.4078 15.5596L12.5507 41.2929C11.9195 42.3861 10.5216 42.7607 9.42832 42.1295C9.30165 42.0564 9.18463 41.973 9.07771 41.8809L4.30768 50.1429L2.32819 53.5714C1.44842 55.0952 2.54814 57 4.30768 57H8.26665H17.9996C17.9996 55.7376 19.023 54.7143 20.2854 54.7143L49.9996 54.7143C51.262 54.7143 52.2854 55.7376 52.2854 57L59.7333 57H63.6923C65.4518 57 66.5515 55.0952 65.6718 53.5714L63.6923 50.1429L58.922 41.8805C58.815 41.9727 58.6978 42.0563 58.571 42.1295C57.4777 42.7607 56.0798 42.3861 55.4486 41.2929L40.5915 15.5596C39.9603 14.4663 40.3349 13.0684 41.4281 12.4372C41.555 12.364 41.6859 12.3043 41.8193 12.2577L37.959 5.57143L35.9795 2.14286ZM36.2859 44.4281C36.2859 44.1283 36.2268 43.8313 36.1121 43.5543C35.9973 43.2773 35.8291 43.0255 35.6171 42.8135C35.405 42.6015 35.1533 42.4333 34.8763 42.3185C34.5992 42.2038 34.3023 42.1447 34.0025 42.1447C33.7026 42.1447 33.4057 42.2038 33.1286 42.3185C32.8516 42.4333 32.5999 42.6015 32.3878 42.8135C32.1758 43.0255 32.0076 43.2773 31.8928 43.5543C31.7781 43.8313 31.719 44.1283 31.719 44.4281C31.7378 45.0209 31.9865 45.5832 32.4124 45.9959C32.8384 46.4086 33.4082 46.6393 34.0013 46.6393C34.5944 46.6393 35.1642 46.4086 35.5902 45.9959C36.0162 45.5832 36.2648 45.0209 36.2836 44.4281H36.2859ZM35.6916 26.4784C35.6324 26.0479 35.4119 25.656 35.0747 25.3819C34.7375 25.1078 34.3088 24.9719 33.8753 25.0019C33.4418 25.0318 33.0358 25.2252 32.7395 25.543C32.4432 25.8608 32.2786 26.2793 32.279 26.7138L32.2882 37.0018L32.3042 37.235C32.3634 37.6655 32.5839 38.0574 32.9211 38.3315C33.2582 38.6056 33.6869 38.7414 34.1204 38.7115C34.5539 38.6816 34.9599 38.4882 35.2563 38.1704C35.5526 37.8526 35.7172 37.4341 35.7167 36.9996L35.7076 26.7093L35.6916 26.4784ZM32.5007 15.5938C32.6489 15.3256 32.8662 15.102 33.1302 14.9463C33.3941 14.7906 33.6949 14.7084 34.0013 14.7084C34.3077 14.7084 34.6086 14.7906 34.8725 14.9463C35.1364 15.102 35.3537 15.3256 35.5019 15.5938L53.2047 47.5984C53.3491 47.8593 53.4228 48.1534 53.4187 48.4516C53.4147 48.7497 53.3329 49.0417 53.1815 49.2986C53.0301 49.5555 52.8143 49.7684 52.5554 49.9164C52.2965 50.0644 52.0035 50.1423 51.7053 50.1424H16.2996C16.0012 50.1427 15.7079 50.0651 15.4487 49.9173C15.1895 49.7694 14.9734 49.5565 14.8217 49.2996C14.67 49.0426 14.5881 48.7505 14.5839 48.4522C14.5797 48.1538 14.6535 47.8595 14.7979 47.5984L32.5007 15.5938Z" fill="white"/>
</g>
<defs>
<filter id="filter0_dd_5107_72292" x="0.0185547" y="0" width="67.9629" height="58" filterUnits="userSpaceOnUse" color-interpolation-filters="sRGB">
<feFlood flood-opacity="0" result="BackgroundImageFix"/>
<feColorMatrix in="SourceAlpha" type="matrix" values="0 0 0 0 0 0 0 0 0 0 0 0 0 0 0 0 0 0 127 0" result="hardAlpha"/>
<feOffset dx="2" dy="1"/>
<feComposite in2="hardAlpha" operator="out"/>
<feColorMatrix type="matrix" values="0 0 0 0 0.988235 0 0 0 0 0.168627 0 0 0 0 0.529412 0 0 0 1 0"/>
<feBlend mode="normal" in2="BackgroundImageFix" result="effect1_dropShadow_5107_72292"/>
<feColorMatrix in="SourceAlpha" type="matrix" values="0 0 0 0 0 0 0 0 0 0 0 0 0 0 0 0 0 0 127 0" result="hardAlpha"/>
<feOffset dx="-2" dy="-1"/>
<feComposite in2="hardAlpha" operator="out"/>
<feColorMatrix type="matrix" values="0 0 0 0 0.00392157 0 0 0 0 1 0 0 0 0 1 0 0 0 1 0"/>
<feBlend mode="normal" in2="effect1_dropShadow_5107_72292" result="effect2_dropShadow_5107_72292"/>
<feBlend mode="normal" in="SourceGraphic" in2="effect2_dropShadow_5107_72292" result="shape"/>
</filter>
</defs>
</svg>
