<svg width="191" height="39" viewBox="0 0 191 39" fill="none" xmlns="http://www.w3.org/2000/svg">
<g filter="url(#filter0_dd_5112_72067)">
<path d="M29.9722 19.6304H8.63419L3.99897 14.9752V9.68067H5.89701L7.51535 11.299V13.5367L10.0727 16.114H28.3738L29.9722 17.7124V19.6304ZM28.1541 9.00137H5.6173L3.99897 7.38304V5.48499H26.5357L28.1541 7.10332V9.00137ZM49.242 19.6504H33.748L32.6491 18.5378V16.6697H34.7644L35.3963 17.2329H47.4152L46.2064 16.0104H35.8496L32.6491 12.8237V9.92541H33.954L35.0529 11.038V11.8347L36.7836 13.5654H47.1404L47.9371 14.3346V9.92541H49.242L50.3409 11.038V18.5378L49.242 19.6504ZM70.1053 19.6504H53.5124L52.3998 18.5378V12.8099H53.7047L54.4876 13.5929H62.5506L61.2869 12.3429H52.3998V9.92541H62.2758L65.4351 13.0847V13.5929H66.946L70.1053 16.7521V19.6504ZM67.1795 17.2329L65.957 16.0104H54.8173L56.026 17.2329H67.1795ZM90.0341 12.3429H76.3258L75.2269 11.2303V9.92541H88.9215L90.0341 11.038V12.3429ZM88.9215 19.6504H73.2764L72.1638 18.5378V16.7521L74.128 14.7879L72.1638 12.8237V9.92541H73.4687L74.5813 11.038V11.8347L76.3395 13.5929H87.3694L88.482 14.7055V16.0104H76.312L75.0895 17.2329H90.0341V18.5378L88.9215 19.6504ZM109.794 19.6504H107.226L103.613 16.0104H94.5063V19.6504H93.2014L92.0888 18.5378V13.5929H105.619L106.869 12.3429H92.0888V11.038L93.2014 9.92541H108.682L109.794 11.038V12.8237L106.855 15.7494L109.794 18.7164V19.6504ZM114.27 19.6504H112.965L111.853 18.5378V13.5929H125.383L126.633 12.3429H111.853V11.038L112.965 9.92541H128.446L129.558 11.038V12.8237L126.372 16.0104H114.27V19.6504ZM148.375 19.6504H134.804L131.617 16.4499V9.92541H132.922L134.034 11.038V15.4747L135.793 17.2329H147.07V9.92541H148.375L149.474 11.038V18.5378L148.375 19.6504ZM146.438 16.0104H145.133L144.02 14.8978V10.3787H145.325L146.438 11.4913V16.0104ZM165.525 16.0104H162.641L157.984 11.3127V10.3787H160.553L165.525 15.3923V16.0104ZM169.468 19.6504H161.858L154.523 12.3429H152.641L151.529 11.2303V9.92541H155.594L162.97 17.2329H167.064V11.038L168.163 9.92541H169.468V19.6504ZM153.946 19.6504H152.641L151.529 18.5378V13.0847H152.833L153.946 14.1973V19.6504ZM189.473 19.6504H183.841L181.506 17.3016L179.144 19.6504H172.633L171.534 18.5378V9.92541H172.839L173.952 11.038V17.2329H178.031L185.366 9.92541H189.473V11.2303L188.374 12.3429H186.479L183.21 15.6121L184.83 17.2329H188.374L189.473 18.3455V19.6504ZM178.333 16.0104H175.449V15.3923L180.421 10.3787H182.99V11.3127L178.333 16.0104Z" fill="white"/>
</g>
<g filter="url(#filter1_d_5112_72067)">
<path d="M12.953 35.0506L13.083 35.3506H10.713L10.653 35.2206L9.56301 32.5906L8.84301 30.8406L8.53301 30.1006H8.22301L7.92301 30.8406L7.19301 32.5906L6.10301 35.2206L6.04301 35.3506H3.68301L3.80301 35.0506L4.89301 32.4206L5.62301 30.6706L5.98301 29.8006L6.71301 28.0506L6.76301 27.9206H9.99301L10.053 28.0506L10.773 29.8006L11.133 30.6706L11.863 32.4206L12.953 35.0506ZM26.14 27.9206H35.32V30.1006H31.82V35.3506H29.64V30.1006H26.14V27.9206ZM50.0326 27.9206H59.2126V30.1006H55.7126V35.3506H53.5326V30.1006H50.0326V27.9206ZM82.3261 35.0506L82.4561 35.3506H80.0861L80.0261 35.2206L78.9361 32.5906L78.2161 30.8406L77.9061 30.1006H77.5961L77.2961 30.8406L76.5661 32.5906L75.4761 35.2206L75.4161 35.3506H73.0561L73.1761 35.0506L74.2661 32.4206L74.9961 30.6706L75.3561 29.8006L76.0861 28.0506L76.1361 27.9206H79.3661L79.4261 28.0506L80.1461 29.8006L80.5061 30.6706L81.2361 32.4206L82.3261 35.0506ZM105.972 31.4206H103.792V30.5606C103.792 30.3106 103.582 30.1006 103.332 30.1006H98.9724V32.7106C98.9724 32.9606 99.1824 33.1706 99.4324 33.1706H105.972V35.3506H99.2724C99.1924 35.3506 99.1024 35.3506 99.0124 35.3406C98.9124 35.3306 98.8124 35.3106 98.7024 35.2906C98.2524 35.1806 97.8424 34.9606 97.5124 34.6306C97.1824 34.3006 96.9624 33.8906 96.8524 33.4406C96.8324 33.3706 96.8224 33.3006 96.8124 33.2306C96.7924 33.1106 96.7924 32.9906 96.7924 32.8706V27.9206H103.492C103.682 27.9206 103.872 27.9406 104.052 27.9806C104.502 28.0906 104.922 28.3206 105.242 28.6506C105.572 28.9706 105.802 29.3906 105.912 29.8406C105.952 30.0206 105.972 30.2106 105.972 30.4006V31.4206ZM125.795 31.2606L129.795 34.9806L130.205 35.3506H126.995L126.925 35.3006L124.005 32.5806L122.865 33.4306V35.3406H120.685V27.9206H122.865V30.7106L124.025 29.8506L126.575 27.9606L126.635 27.9206H130.305L129.775 28.3106L125.795 31.2606Z" fill="#FC2B87"/>
</g>
<defs>
<filter id="filter0_dd_5112_72067" x="3.43652" y="4.73535" width="186.599" height="15.8525" filterUnits="userSpaceOnUse" color-interpolation-filters="sRGB">
<feFlood flood-opacity="0" result="BackgroundImageFix"/>
<feColorMatrix in="SourceAlpha" type="matrix" values="0 0 0 0 0 0 0 0 0 0 0 0 0 0 0 0 0 0 127 0" result="hardAlpha"/>
<feOffset dx="-0.5625" dy="-0.75"/>
<feComposite in2="hardAlpha" operator="out"/>
<feColorMatrix type="matrix" values="0 0 0 0 0.00392157 0 0 0 0 0.820706 0 0 0 0 1 0 0 0 1 0"/>
<feBlend mode="normal" in2="BackgroundImageFix" result="effect1_dropShadow_5112_72067"/>
<feColorMatrix in="SourceAlpha" type="matrix" values="0 0 0 0 0 0 0 0 0 0 0 0 0 0 0 0 0 0 127 0" result="hardAlpha"/>
<feOffset dx="0.5625" dy="0.9375"/>
<feComposite in2="hardAlpha" operator="out"/>
<feColorMatrix type="matrix" values="0 0 0 0 0.988235 0 0 0 0 0.168627 0 0 0 0 0.529412 0 0 0 1 0"/>
<feBlend mode="normal" in2="effect1_dropShadow_5112_72067" result="effect2_dropShadow_5112_72067"/>
<feBlend mode="normal" in="SourceGraphic" in2="effect2_dropShadow_5112_72067" result="shape"/>
</filter>
<filter id="filter1_d_5112_72067" x="0.982617" y="25.2209" width="132.022" height="12.8297" filterUnits="userSpaceOnUse" color-interpolation-filters="sRGB">
<feFlood flood-opacity="0" result="BackgroundImageFix"/>
<feColorMatrix in="SourceAlpha" type="matrix" values="0 0 0 0 0 0 0 0 0 0 0 0 0 0 0 0 0 0 127 0" result="hardAlpha"/>
<feOffset/>
<feGaussianBlur stdDeviation="1.35"/>
<feComposite in2="hardAlpha" operator="out"/>
<feColorMatrix type="matrix" values="0 0 0 0 0 0 0 0 0 0 0 0 0 0 0 0 0 0 0.8 0"/>
<feBlend mode="normal" in2="BackgroundImageFix" result="effect1_dropShadow_5112_72067"/>
<feBlend mode="normal" in="SourceGraphic" in2="effect1_dropShadow_5112_72067" result="shape"/>
</filter>
</defs>
</svg>
