<svg width="32" height="33" viewBox="0 0 32 33" fill="none" xmlns="http://www.w3.org/2000/svg">
<path fill-rule="evenodd" clip-rule="evenodd" d="M31.9682 5.77639C32.0377 5.355 31.9928 4.9227 31.8384 4.52453C31.684 4.12636 31.4256 3.77689 31.0902 3.51253C30.7548 3.24817 30.3546 3.07859 29.9314 3.02146C29.5081 2.96434 29.0773 3.02175 28.6838 3.18773L1.45993 14.6504C-0.437783 15.4496 -0.534898 18.1943 1.45993 19.0222C3.4352 19.846 5.43927 20.5989 7.46829 21.2797C9.3278 21.8942 11.3561 22.4626 12.9815 22.6234C13.4257 23.1551 13.9845 23.6662 14.5545 24.1358C15.4253 24.8522 16.4729 25.5893 17.5555 26.2962C19.7238 27.7131 22.1294 29.0679 23.7501 29.9499C25.6876 31.0007 28.0072 29.7907 28.3543 27.6781L31.9682 5.77639ZM4.51187 16.8188L28.5899 6.68226L25.218 27.1241C23.6275 26.2596 21.3366 24.9653 19.2956 23.6311C18.3549 23.0272 17.4467 22.3741 16.5748 21.6745C16.3417 21.4841 16.1155 21.2855 15.8966 21.0791L22.2026 14.7746C22.5014 14.4761 22.6693 14.0711 22.6694 13.6488C22.6696 13.2265 22.502 12.8214 22.2034 12.5227C21.9049 12.2239 21.4999 12.056 21.0776 12.0559C20.6553 12.0557 20.2502 12.2233 19.9515 12.5219L13.0468 19.4265C11.8782 19.2769 10.2512 18.8439 8.46491 18.2548C7.13507 17.8118 5.81585 17.333 4.51187 16.8188Z" fill="black"/>
</svg>
