<svg width="659" height="86" viewBox="0 0 659 86" fill="none" xmlns="http://www.w3.org/2000/svg">
<path opacity="0.05" d="M83.3857 53.7524H18.1191L3.9413 39.5135V23.319H9.74685L14.6969 28.269V35.1135L22.5191 42.9968H78.4969L83.3857 47.8857V53.7524ZM77.8246 21.2413H8.8913L3.9413 16.2913V10.4857H72.8746L77.8246 15.4357V21.2413ZM160.24 53.7524H91.3063L86.4174 48.8024V40.4913H95.8285L98.6396 42.9968H152.112L146.673 37.5579H100.656L86.4174 23.3801V10.4857H92.223L97.1119 15.4357V18.9801L104.812 26.6801H150.89L154.373 30.1024V10.4857H160.24L165.129 15.4357V48.8024L160.24 53.7524ZM246.95 53.7524H173.127L168.177 48.8024V23.319H173.983L177.466 26.8024H213.339L207.716 21.2413H168.177V10.4857H212.116L226.172 24.5413V26.8024H232.894L246.95 40.8579V53.7524ZM233.933 42.9968L228.494 37.5579H178.933L184.311 42.9968H233.933ZM329.503 21.2413H268.514L263.625 16.2913V10.4857H324.553L329.503 15.4357V21.2413ZM324.553 53.7524H254.947L249.997 48.8024V40.8579L258.736 32.119L249.997 23.3801V10.4857H255.803L260.753 15.4357V18.9801L268.575 26.8024H317.647L322.597 31.7524V37.5579H268.453L263.014 42.9968H329.503V48.8024L324.553 53.7524ZM411.305 53.7524H399.877L383.805 37.5579H343.288V53.7524H337.483L332.533 48.8024V26.8024H392.727L398.288 21.2413H332.533V15.4357L337.483 10.4857H406.355L411.305 15.4357V23.3801L398.227 36.3968L411.305 49.5357V53.7524ZM425.108 53.7524H419.303L414.353 48.8024V26.8024H474.547L480.108 21.2413H414.353V15.4357L419.303 10.4857H488.175L493.125 15.4357V23.3801L478.947 37.5579H425.108V53.7524ZM562.111 37.5579H556.305L551.355 32.6079V12.5024H557.161L562.111 17.4524V37.5579ZM575.617 53.7524H510.35L496.172 39.5135V10.4857H501.978L506.928 15.4357V35.1135L514.75 42.9968H564.922V10.4857H570.728L575.617 15.4357V53.7524ZM608.898 37.5579H596.065V34.8079L618.187 12.5024H629.615V16.6579L608.898 37.5579ZM658.459 53.7524H633.404L623.015 43.3024L612.504 53.7524H583.537L578.648 48.8024V10.4857H584.454L589.404 15.4357V42.9968H607.554L640.187 10.4857H658.459V16.2913L653.57 21.2413H645.137L630.593 35.7857L637.804 42.9968H653.57L658.459 47.8857V53.7524Z" fill="white"/>
<path d="M182.779 54.4298H138.006L128.28 44.6617V33.5522H132.262L135.658 36.9479V41.6433L141.024 47.0513H179.426L182.779 50.4052V54.4298ZM178.964 32.1268H131.675L128.28 28.7311V24.7484H175.569L178.964 28.1441V32.1268ZM225.045 54.4717H191.267L188.872 52.0461V47.9736H193.483L194.861 49.2014H221.063L218.427 46.5363H195.849L188.872 39.5891V33.2707H191.717L194.112 35.6962V37.433L197.885 41.2061H220.464L222.2 42.883V33.2707H225.045L227.441 35.6962V52.0461L225.045 54.4717ZM270.828 54.4717H234.654L232.229 52.0461V39.5591H235.073L236.78 41.266H254.358L251.603 38.541H232.229V33.2707H253.759L260.646 40.158V41.266H263.94L270.828 48.1533V54.4717ZM264.449 49.2014L261.784 46.5363H237.499L240.134 49.2014H264.449ZM314.573 38.541H284.688L282.293 36.1155V33.2707H312.148L314.573 35.6962V38.541ZM312.148 54.4717H278.04L275.615 52.0461V48.1533L279.897 43.8712L275.615 39.5891V33.2707H278.46L280.885 35.6962V37.433L284.718 41.266H308.764L311.189 43.6915V46.5363H284.658L281.993 49.2014H314.573V52.0461L312.148 54.4717ZM357.951 54.4717H352.351L344.476 46.5363H324.622V54.4717H321.777L319.352 52.0461V41.266H348.848L351.573 38.541H319.352V35.6962L321.777 33.2707H355.525L357.951 35.6962V39.5891L351.543 45.9673L357.951 52.4354V54.4717ZM368.008 54.4717H365.164L362.738 52.0461V41.266H392.234L394.959 38.541H362.738V35.6962L365.164 33.2707H398.912L401.337 35.6962V39.5891L394.39 46.5363H368.008V54.4717ZM442.657 54.4717H413.071L406.124 47.4945V33.2707H408.969L411.395 35.6962V45.3684L415.228 49.2014H439.812V33.2707H442.657L445.053 35.6962V52.0461L442.657 54.4717ZM438.435 46.5363H435.59L433.164 44.1108V34.2589H436.009L438.435 36.6844V46.5363ZM480.346 46.5363H474.057L463.906 36.2951V34.2589H469.506L480.346 45.1888V46.5363ZM488.94 54.4717H472.351L456.36 38.541H452.258L449.832 36.1155V33.2707H458.696L474.776 49.2014H483.7V35.6962L486.095 33.2707H488.94V54.4717ZM455.102 54.4717H452.258L449.832 52.0461V40.158H452.677L455.102 42.5836V54.4717ZM532.853 54.4717H520.575L515.485 49.3511L510.334 54.4717H496.14L493.745 52.0461V33.2707H496.589L499.015 35.6962V49.2014H507.909L523.899 33.2707H532.853V36.1155L530.457 38.541H526.325L519.198 45.6679L522.731 49.2014H530.457L532.853 51.6269V54.4717ZM508.567 46.5363H502.279V45.1888L513.119 34.2589H518.719V36.2951L508.567 46.5363Z" fill="white"/>
<path d="M211.583 80.9825L211.791 81.4609H208.011L207.915 81.2536L206.176 77.0589L205.028 74.2678L204.534 73.0875H204.039L203.561 74.2678L202.396 77.0589L200.658 81.2536L200.562 81.4609H196.798L196.99 80.9825L198.728 76.7878L199.892 73.9966L200.467 72.609L201.631 69.8179L201.711 69.6106H206.862L206.958 69.8179L208.106 72.609L208.681 73.9966L209.845 76.7878L211.583 80.9825ZM245.375 69.6106H260.017V73.0875H254.435V81.4609H250.958V73.0875H245.375V69.6106ZM296.242 69.6106H310.883V73.0875H305.301V81.4609H301.824V73.0875H296.242V69.6106ZM360.507 80.9825L360.715 81.4609H356.935L356.839 81.2536L355.101 77.0589L353.952 74.2678L353.458 73.0875H352.963L352.485 74.2678L351.321 77.0589L349.582 81.2536L349.486 81.4609H345.722L345.914 80.9825L347.652 76.7878L348.817 73.9966L349.391 72.609L350.555 69.8179L350.635 69.6106H355.786L355.882 69.8179L357.03 72.609L357.605 73.9966L358.769 76.7878L360.507 80.9825ZM410.981 75.1928H407.504V73.8212C407.504 73.4225 407.169 73.0875 406.771 73.0875H399.817V77.2503C399.817 77.649 400.152 77.984 400.55 77.984H410.981V81.4609H400.295C400.168 81.4609 400.024 81.4609 399.881 81.445C399.721 81.429 399.562 81.3971 399.386 81.3652C398.668 81.1898 398.014 80.8389 397.488 80.3126C396.962 79.7863 396.611 79.1323 396.435 78.4146C396.404 78.303 396.388 78.1913 396.372 78.0797C396.34 77.8883 396.34 77.6969 396.34 77.5055V69.6106H407.026C407.329 69.6106 407.632 69.6425 407.919 69.7063C408.637 69.8817 409.307 70.2485 409.817 70.7749C410.343 71.2852 410.71 71.9551 410.886 72.6728C410.949 72.9599 410.981 73.263 410.981 73.566V75.1928ZM455.357 74.9376L461.736 80.8708L462.39 81.4609H457.27L457.159 81.3812L452.502 77.043L450.683 78.3987V81.445H447.206V69.6106H450.683V74.0604L452.534 72.6888L456.601 69.6744L456.696 69.6106H462.55L461.704 70.2326L455.357 74.9376Z" fill="#FC2B87"/>
</svg>
