<svg width="32" height="28" viewBox="0 0 32 28" fill="none" xmlns="http://www.w3.org/2000/svg">
<path fill-rule="evenodd" clip-rule="evenodd" d="M11.7385 0.893181C12.3281 0.775263 12.9237 1.06655 13.1926 1.60434L14.0685 3.35618C15.3553 3.14877 16.6447 3.14877 17.9315 3.35618L18.8074 1.60434C19.0763 1.06655 19.6719 0.775263 20.2615 0.893181C22.6534 1.37156 25.0179 2.32313 27.3527 3.72397C27.5403 3.83656 27.6974 3.99363 27.81 4.18129C30.6238 8.87105 32 14.4521 32 20.8673C32 21.17 31.897 21.4638 31.7078 21.7002C29.7378 24.1627 26.8424 26.0587 23.1348 27.4491C22.5546 27.6666 21.901 27.4558 21.5573 26.9402C20.7999 25.8041 20.1974 24.5361 19.7428 23.1445C17.2494 23.6638 14.7506 23.6638 12.2572 23.1445C11.8026 24.5361 11.2001 25.8041 10.4427 26.9402C10.099 27.4558 9.44538 27.6666 8.86517 27.4491C5.15756 26.0587 2.26217 24.1627 0.292175 21.7002C0.103041 21.4638 0 21.17 0 20.8673C0 14.4521 1.37616 8.87105 4.19001 4.18129C4.30261 3.99363 4.45967 3.83656 4.64734 3.72397C6.98207 2.32313 9.34659 1.37156 11.7385 0.893181ZM11.5176 20.2133C10.9551 20.0494 10.3922 19.8548 9.82852 19.6293C9.14481 19.3558 8.36885 19.6884 8.09536 20.3721C7.82188 21.0558 8.15443 21.8318 8.83815 22.1053C9.12085 22.2183 9.40368 22.3247 9.68662 22.4244C9.43064 23.1887 9.12625 23.8943 8.77535 24.5435C6.09481 23.4102 4.08157 22.0131 2.66941 20.3879C2.73466 14.7038 3.96481 9.871 6.30696 5.84065C7.98205 4.86605 9.63838 4.16862 11.2771 3.73634L12.1408 5.46357C12.4202 6.02253 13.0504 6.31238 13.6567 6.16081C15.2222 5.76945 16.7778 5.76945 18.3433 6.16081C18.9496 6.31238 19.5798 6.02253 19.8592 5.46357L20.7229 3.73634C22.3616 4.16862 24.0179 4.86605 25.693 5.84064C28.0352 9.87099 29.2653 14.7038 29.3306 20.3879C27.9184 22.0131 25.9052 23.4102 23.2247 24.5435C22.8738 23.8943 22.5694 23.1887 22.3134 22.4244C22.5963 22.3247 22.8792 22.2183 23.1619 22.1053C23.8456 21.8318 24.1781 21.0558 23.9046 20.3721C23.6312 19.6884 22.8552 19.3558 22.1715 19.6293C21.6078 19.8548 21.0449 20.0494 20.4824 20.2133C20.4361 20.2198 20.3897 20.2288 20.3433 20.2404C20.2717 20.2583 20.2029 20.2817 20.1372 20.31C17.3754 21.053 14.6246 21.053 11.8628 20.31C11.7971 20.2817 11.7283 20.2583 11.6567 20.2404C11.6103 20.2288 11.5639 20.2198 11.5176 20.2133ZM8 14.2006C8 12.7279 9.19391 11.534 10.6667 11.534C12.1394 11.534 13.3333 12.7279 13.3333 14.2006C13.3333 15.6734 12.1394 16.8673 10.6667 16.8673C9.19391 16.8673 8 15.6734 8 14.2006ZM21.3333 11.534C19.8606 11.534 18.6667 12.7279 18.6667 14.2006C18.6667 15.6734 19.8606 16.8673 21.3333 16.8673C22.8061 16.8673 24 15.6734 24 14.2006C24 12.7279 22.8061 11.534 21.3333 11.534Z" fill="black"/>
</svg>
