<svg width="32" height="33" viewBox="0 0 32 33" fill="none" xmlns="http://www.w3.org/2000/svg">
<path d="M16 0.201172C11.658 0.201172 11.112 0.221172 9.406 0.297172C7.7 0.377172 6.538 0.645172 5.52 1.04117C4.45219 1.44281 3.48498 2.07282 2.686 2.88717C1.87215 3.68656 1.24221 4.65365 0.84 5.72117C0.444 6.73717 0.174 7.90117 0.096 9.60117C0.02 11.3112 0 11.8552 0 16.2032C0 20.5472 0.02 21.0912 0.096 22.7972C0.176 24.5012 0.444 25.6632 0.84 26.6812C1.25 27.7332 1.796 28.6252 2.686 29.5152C3.574 30.4052 4.466 30.9532 5.518 31.3612C6.538 31.7572 7.698 32.0272 9.402 32.1052C11.11 32.1812 11.654 32.2012 16 32.2012C20.346 32.2012 20.888 32.1812 22.596 32.1052C24.298 32.0252 25.464 31.7572 26.482 31.3612C27.5491 30.9593 28.5156 30.3293 29.314 29.5152C30.204 28.6252 30.75 27.7332 31.16 26.6812C31.554 25.6632 31.824 24.5012 31.904 22.7972C31.98 21.0912 32 20.5472 32 16.2012C32 11.8552 31.98 11.3112 31.904 9.60317C31.824 7.90117 31.554 6.73717 31.16 5.72117C30.7578 4.65362 30.1279 3.68652 29.314 2.88717C28.5153 2.07252 27.548 1.44246 26.48 1.04117C25.46 0.645172 24.296 0.375172 22.594 0.297172C20.886 0.221172 20.344 0.201172 15.996 0.201172H16.002H16ZM14.566 3.08517H16.002C20.274 3.08517 20.78 3.09917 22.466 3.17717C24.026 3.24717 24.874 3.50917 25.438 3.72717C26.184 4.01717 26.718 4.36517 27.278 4.92517C27.838 5.48517 28.184 6.01717 28.474 6.76517C28.694 7.32717 28.954 8.17517 29.024 9.73517C29.102 11.4212 29.118 11.9272 29.118 16.1972C29.118 20.4672 29.102 20.9752 29.024 22.6612C28.954 24.2212 28.692 25.0672 28.474 25.6312C28.2175 26.3259 27.8081 26.954 27.276 27.4692C26.716 28.0292 26.184 28.3752 25.436 28.6652C24.876 28.8852 24.028 29.1452 22.466 29.2172C20.78 29.2932 20.274 29.3112 16.002 29.3112C11.73 29.3112 11.222 29.2932 9.536 29.2172C7.976 29.1452 7.13 28.8852 6.566 28.6652C5.871 28.409 5.24225 28.0003 4.726 27.4692C4.1935 26.9532 3.78345 26.3245 3.526 25.6292C3.308 25.0672 3.046 24.2192 2.976 22.6592C2.9 20.9732 2.884 20.4672 2.884 16.1932C2.884 11.9212 2.9 11.4172 2.976 9.73117C3.048 8.17117 3.308 7.32317 3.528 6.75917C3.818 6.01317 4.166 5.47917 4.726 4.91917C5.286 4.35917 5.818 4.01317 6.566 3.72317C7.13 3.50317 7.976 3.24317 9.536 3.17117C11.012 3.10317 11.584 3.08317 14.566 3.08117V3.08517ZM24.542 5.74117C24.2899 5.74117 24.0402 5.79083 23.8072 5.88732C23.5743 5.98381 23.3626 6.12524 23.1844 6.30353C23.0061 6.48182 22.8646 6.69347 22.7682 6.92642C22.6717 7.15936 22.622 7.40903 22.622 7.66117C22.622 7.91331 22.6717 8.16298 22.7682 8.39592C22.8646 8.62887 23.0061 8.84053 23.1844 9.01882C23.3626 9.19711 23.5743 9.33853 23.8072 9.43502C24.0402 9.53151 24.2899 9.58117 24.542 9.58117C25.0512 9.58117 25.5396 9.37889 25.8996 9.01882C26.2597 8.65875 26.462 8.17039 26.462 7.66117C26.462 7.15196 26.2597 6.6636 25.8996 6.30353C25.5396 5.94346 25.0512 5.74117 24.542 5.74117ZM16.002 7.98517C14.9121 7.96817 13.8298 8.16814 12.818 8.57345C11.8061 8.97876 10.885 9.58131 10.1083 10.346C9.33157 11.1107 8.71473 12.0223 8.29368 13.0277C7.87264 14.0331 7.6558 15.1122 7.6558 16.2022C7.6558 17.2922 7.87264 18.3713 8.29368 19.3767C8.71473 20.382 9.33157 21.2936 10.1083 22.0583C10.885 22.823 11.8061 23.4256 12.818 23.8309C13.8298 24.2362 14.9121 24.4362 16.002 24.4192C18.1591 24.3855 20.2164 23.505 21.73 21.9677C23.2435 20.4303 24.0918 18.3595 24.0918 16.2022C24.0918 14.0448 23.2435 11.974 21.73 10.4367C20.2164 8.89935 18.1591 8.01883 16.002 7.98517ZM16.002 10.8672C17.4167 10.8672 18.7734 11.4291 19.7737 12.4295C20.774 13.4298 21.336 14.7865 21.336 16.2012C21.336 17.6158 20.774 18.9726 19.7737 19.9729C18.7734 20.9732 17.4167 21.5352 16.002 21.5352C14.5873 21.5352 13.2306 20.9732 12.2303 19.9729C11.23 18.9726 10.668 17.6158 10.668 16.2012C10.668 14.7865 11.23 13.4298 12.2303 12.4295C13.2306 11.4291 14.5873 10.8672 16.002 10.8672Z" fill="black"/>
</svg>
