<svg width="156" height="38" viewBox="0 0 156 38" fill="none" xmlns="http://www.w3.org/2000/svg">
<g clip-path="url(#clip0_5107_72435)">
<rect width="37.4998" height="37.4998" rx="18.7499" fill="#B50A35"/>
<g filter="url(#filter0_dd_5107_72435)">
<path fill-rule="evenodd" clip-rule="evenodd" d="M9.37592 31.8224C5.24952 28.8996 2.55778 24.099 2.55778 18.6722C2.55778 9.76607 9.80767 2.54621 18.7509 2.54621C27.694 2.54621 34.9439 9.76607 34.9439 18.6722C34.9439 24.099 32.2522 28.8996 28.1258 31.8224V18.1991L25.3571 13.5954H24.9117V11.3936L22.1431 6.78989H19.6031V34.7763C19.3209 34.7908 19.0367 34.7982 18.7509 34.7982C18.465 34.7982 18.1808 34.7908 17.8986 34.7763V6.78989H15.3586L12.59 11.3936V13.5954H12.1446L9.37592 18.1991V31.8224ZM9.37592 34.8464V37.7583H11.4945V35.8947C11.6302 35.9514 11.7666 36.0066 11.9038 36.0603V37.7583H16.9235L16.9733 37.6755C17.5584 37.7303 18.1514 37.7583 18.7509 37.7583C19.3504 37.7583 19.9433 37.7303 20.5284 37.6755L20.5782 37.7583H25.5979V36.0603C25.7351 36.0066 25.8715 35.9514 26.0072 35.8947V37.7583H28.1258V34.8464C33.7302 31.6179 37.5007 25.5836 37.5007 18.6722C37.5007 8.35983 29.1061 0 18.7509 0C8.39559 0 0.000976562 8.35983 0.000976562 18.6722C0.000976562 25.5836 3.77157 31.6179 9.37592 34.8464ZM26.0072 33.0924V19.6402L24.9117 17.7987V33.59C25.2841 33.4374 25.6494 33.2713 26.0072 33.0924ZM12.59 33.59C12.2177 33.4374 11.8523 33.2713 11.4945 33.0924V19.6402L12.59 17.7987V33.59ZM15.78 11.0533L14.7086 12.8347V33.8216L15.78 32.0602V11.0533ZM21.7218 11.0533L22.7931 12.8347V33.8216L21.7218 32.0602V11.0533Z" fill="white"/>
</g>
</g>
<rect x="0.75578" y="0.75578" width="35.9882" height="35.9882" rx="17.9941" stroke="#B50A35" stroke-width="1.51156"/>
<path d="M152.255 19.8869H149.589L145.286 15.5457V14.6826H147.66L152.255 19.3157V19.8869ZM155.898 23.2507H148.866L142.088 16.4977H140.348L139.32 15.4696V14.2637H143.078L149.894 21.0166H153.677V15.2918L154.692 14.2637H155.898V23.2507ZM141.554 23.2507H140.348L139.32 22.2225V17.1832H140.526L141.554 18.2114V23.2507Z" fill="white"/>
<path d="M137.294 23.2507H123.737L120.779 20.2931V14.2637H134.349L137.294 17.2213V23.2507ZM135.06 21.0166V18.1225L133.435 16.4977H123.013V19.3919L124.638 21.0166H135.06Z" fill="white"/>
<path d="M118.753 23.2507H108.357L105.412 20.2931V14.2637H106.618L107.646 15.2918V19.3919L109.271 21.0166H117.725L118.753 22.0448V23.2507Z" fill="white"/>
<path d="M100.415 23.2507H88.4579L87.4297 22.2225V16.9801H88.6356L89.6637 18.0083V21.0166H99.3997L101.646 18.7572L99.3997 16.4977H88.4579L87.4297 15.4696V14.2637H100.415L103.779 17.6528V19.8615L100.415 23.2507Z" fill="white"/>
<path d="M85.404 23.2507H84.1981L83.1699 22.2225V14.2637H84.3758L85.404 15.2918V23.2507Z" fill="white"/>
<path d="M80.1102 23.2507H78.9043L78.917 18.1352L77.2922 16.5104H68.7114L67.569 17.6528H76.6829L77.7111 18.681V19.8869H67.0866V23.2507H65.8807L64.8652 22.2225V17.1959L67.8101 14.2637H78.1807L81.1383 17.1959V22.2225L80.1102 23.2507Z" fill="white"/>
<path d="M62.8409 23.2351H52.4449L49.5 20.2775V14.248H50.7059L51.7341 15.2762V19.3635L53.3588 21.001H61.8127L62.8409 22.0165V23.2351Z" fill="white"/>
<defs>
<filter id="filter0_dd_5107_72435" x="-0.265769" y="-0.266746" width="38.1224" height="38.3802" filterUnits="userSpaceOnUse" color-interpolation-filters="sRGB">
<feFlood flood-opacity="0" result="BackgroundImageFix"/>
<feColorMatrix in="SourceAlpha" type="matrix" values="0 0 0 0 0 0 0 0 0 0 0 0 0 0 0 0 0 0 127 0" result="hardAlpha"/>
<feOffset dx="-0.266746" dy="-0.266746"/>
<feComposite in2="hardAlpha" operator="out"/>
<feColorMatrix type="matrix" values="0 0 0 0 0.00392157 0 0 0 0 1 0 0 0 0 1 0 0 0 1 0"/>
<feBlend mode="normal" in2="BackgroundImageFix" result="effect1_dropShadow_5107_72435"/>
<feColorMatrix in="SourceAlpha" type="matrix" values="0 0 0 0 0 0 0 0 0 0 0 0 0 0 0 0 0 0 127 0" result="hardAlpha"/>
<feOffset dx="0.355661" dy="0.355661"/>
<feComposite in2="hardAlpha" operator="out"/>
<feColorMatrix type="matrix" values="0 0 0 0 0.92549 0 0 0 0 0.101961 0 0 0 0 0.466667 0 0 0 1 0"/>
<feBlend mode="normal" in2="effect1_dropShadow_5107_72435" result="effect2_dropShadow_5107_72435"/>
<feBlend mode="normal" in="SourceGraphic" in2="effect2_dropShadow_5107_72435" result="shape"/>
</filter>
<clipPath id="clip0_5107_72435">
<rect width="37.4998" height="37.4998" rx="18.7499" fill="white"/>
</clipPath>
</defs>
</svg>
